<?xml version="1.0" encoding="UTF-8" standalone="no"?>
<!DOCTYPE svg PUBLIC "-//W3C//DTD SVG 1.1//EN" "http://www.w3.org/Graphics/SVG/1.1/DTD/svg11.dtd">
<!-- Created with Vectornator (http://vectornator.io/) -->
<svg height="100%" stroke-miterlimit="10" style="fill-rule:nonzero;clip-rule:evenodd;stroke-linecap:round;stroke-linejoin:round;" version="1.1" viewBox="0 0 1024 1024" width="100%" xml:space="preserve" xmlns="http://www.w3.org/2000/svg" xmlns:vectornator="http://vectornator.io" xmlns:xlink="http://www.w3.org/1999/xlink">
<defs/>
<clipPath id="ArtboardFrame">
<rect height="1024" width="1024" x="0" y="0"/>
</clipPath>
<g clip-path="url(#ArtboardFrame)" id="レイヤー-3" vectornator:layerName="レイヤー 3">
<path d="M316.245 225.249C310.875 225.249 312.974 234.503 312.974 237.971C312.974 249.889 314.26 259.148 317.336 270.682C319.688 279.504 321.249 288.569 324.241 297.215C327.915 307.827 334.878 317.198 339.507 327.382C341.377 331.497 342.42 335.931 344.959 339.74C347.068 342.904 349.724 345.616 351.865 348.826C354.1 352.18 355.973 356.733 359.134 359.367C361.116 361.019 363.874 361.987 366.04 363.365C369.178 365.362 371.928 367.939 375.126 369.907C376.743 370.902 378.434 371.761 380.146 372.577" fill="none" fill-rule="evenodd" opacity="1" stroke="#000000" stroke-linecap="round" stroke-linejoin="round" stroke-width="15.3813"/>
<path d="M313.224 224.473C314.584 221.751 302.397 229.113 301.248 229.515C291.821 232.814 282.467 235.415 274.146 241.175C271.491 243.013 269.625 245.683 267.213 247.793C264.398 250.256 261.126 251.959 258.074 254.096C254.014 256.937 251.098 261.387 247.674 264.811C243.909 268.576 239.455 271.818 235.383 275.211C232.48 277.63 230.779 281.075 228.135 283.72C224.223 287.632 220.189 291.163 216.79 295.695C214.376 298.914 212.739 302.582 209.857 305.464C208.439 306.882 206.847 307.823 205.76 309.561C202.606 314.607 198.754 320.088 196.621 325.634C195.135 329.496 193.85 333.465 192.209 337.294C190.979 340.164 189.047 342.81 188.112 345.803C187.243 348.582 186.774 351.532 185.906 354.312C184.838 357.728 182.632 360.666 181.494 364.081C178.134 374.162 175.077 384.278 171.724 394.335C168.608 403.684 167.431 413.674 166.052 423.328C162.967 444.921 161.448 465.832 162.9 487.617C164.037 504.664 165.23 521.01 168.573 537.725C169.821 543.965 170.689 550.664 172.985 556.634C174.209 559.816 176.679 561.874 178.658 564.512C180.069 566.394 180.884 568.835 181.709 571.256" fill="none" fill-rule="evenodd" opacity="1" stroke="#000000" stroke-linecap="round" stroke-linejoin="round" stroke-width="15.3813"/>
<path d="M191.522 602.655C194.137 610.5 197.54 618.854 201.234 626.24C202.354 628.481 203.996 630.513 205.049 632.831C206.445 635.901 207.053 639.297 208.864 642.195C210.799 645.29 213.601 647.932 215.801 650.867C217.478 653.103 218.164 656.075 219.617 658.497C222.134 662.693 225.749 666.37 227.594 670.984C233.423 685.555 239.553 699.852 240.774 715.727C241.188 721.104 240.743 726.734 240.081 732.029C239.884 733.603 238.95 734.996 238.693 736.538C237.947 741.014 238.436 745.545 237.306 750.065C236.274 754.194 233.788 757.844 232.45 761.858C231.629 764.321 231.602 766.972 231.063 769.488C230.321 772.952 229.048 776.227 227.941 779.547C226.695 783.285 227.116 788.1 226.554 792.033C225.836 797.055 223.159 801.61 222.391 806.601C221.102 814.982 220.719 823.931 218.724 832.257" fill="none" fill-rule="evenodd" opacity="1" stroke="#000000" stroke-linecap="round" stroke-linejoin="round" stroke-width="15.9106"/>
<path d="M203.98 863.448C200.918 869.231 196.222 873.343 192.9 878.88C188.567 886.102 182.905 892.092 178.259 899.061C176.091 902.313 174.886 906.099 172.719 909.349C170.341 912.916 167.046 915.55 164.41 918.846C161.572 922.393 159.798 926.769 156.891 930.321C153.23 934.796 149.03 938.862 145.416 943.38C143.096 946.28 141.911 949.96 139.48 952.876C137.602 955.13 135.053 956.636 133.149 958.812C130.841 961.45 128.827 964.548 126.026 966.726C114.412 975.759 104.796 987.165 94.3702 997.591C90.7215 1001.24 86.4359 1003.22 82.8948 1007.09C77.66 1012.8 72.367 1020.02 66.2753 1024.89C62.3556 1028.03 57.9656 1026.91 57.9656 1033.2" fill="none" fill-rule="evenodd" opacity="1" stroke="#000000" stroke-linecap="round" stroke-linejoin="round" stroke-width="15.6448"/>
<path d="M619.315-3.65469C619.315-3.65469 617.636 184.832 615.714 276.843C613.793 368.854 611.629 364.388 611.629 364.388" fill="none" fill-rule="evenodd" opacity="1" stroke="#000000" stroke-linecap="round" stroke-linejoin="round" stroke-width="13.111"/>
<path d="M897.172 233.234C904.95 228.88 911.669 222.963 919.489 218.713C932.376 211.709 946.322 206.11 959.991 200.816C976.089 194.58 992.621 187.714 1010 186.868C1013.83 186.681 1023.68 185.782 1026.69 189.539C1027.65 190.736 1027.32 192.094 1027.92 193.403C1031.1 200.319 1029.1 207.425 1024.89 213.367C1023.65 215.117 1021.89 216.769 1020.98 218.736C1019.77 221.374 1019.44 224.008 1017.26 226.196C1013.9 229.557 1010.05 232.53 1007.03 236.252C1004.14 239.814 1002.07 243.959 998.4 246.898C995.599 249.142 992.258 250.7 989.447 252.952C984.326 257.054 980.433 262.449 975.496 266.739C970.88 270.75 965.971 274.448 961.727 278.889C959.726 280.982 958.303 283.567 956.411 285.759C953.293 289.37 949.466 292.438 946.551 296.269C943.663 300.065 941.541 304.258 938.237 307.779C934.276 312.002 930.286 315.86 926.878 320.61C924.702 323.642 922.882 326.974 920.473 329.845C917.844 332.98 914.681 335.898 912.386 339.308C906.228 348.456 901.306 358.529 895.944 368.148C894.659 370.454 892.925 372.482 891.493 374.699C887.109 381.483 884.081 389.486 880.367 396.669C877.759 401.714 876.733 407.413 874.466 412.588C872.49 417.1 870.623 421.41 868.837 426.052C867.351 429.914 863.761 434.507 863.298 438.697C862.273 447.983 858.506 455.185 856.767 464.074C855.214 472.016 854.331 480.13 852.873 488.086C851.567 495.211 852.499 502.726 851.706 509.913C851.074 515.635 850.9 520.909 851.018 526.37" fill="none" fill-rule="evenodd" opacity="1" stroke="#000000" stroke-linecap="round" stroke-linejoin="round" stroke-width="15.3813"/>
<path d="M849.069 559.299C845.11 580.022 840.743 601.064 835.206 621.419C832.229 632.365 829.296 643.566 827.816 654.882C827.066 660.619 827.131 666.348 826.524 672.073C824.605 690.169 822.641 708.397 822.578 726.622C822.552 733.97 820.539 741.344 820.367 748.619C820.288 751.965 821.553 755.315 821.414 758.784C821.314 761.303 820.509 766.455 820.447 769.062C820.249 777.408 822.603 785.474 822.676 793.9C822.765 804.323 824.439 814.699 824.672 825.172C824.812 831.458 825.049 837.877 825.027 844.172C825.015 847.726 824.626 851.201 825.502 854.725C826.444 858.518 828.109 861.959 828.86 865.83C829.652 869.909 829.745 874.21 830.982 878.192C832.196 882.1 834.627 884.814 835.966 888.611C838.102 894.662 839.12 901.073 841.404 907.088C843.836 913.494 847.626 919.393 850.298 925.727C852.115 930.033 852.203 934.705 853.197 939.234C855.435 949.43 860.528 960.498 866.411 969.161C867.903 971.358 869.865 973.238 871.169 975.551C876.138 984.364 876.57 994.45 881.294 1003.39C885.447 1011.26 890.17 1019.74 895.793 1026.59C896.458 1027.4 900.152 1032.46 899.979 1033.37C899.917 1033.69 899.338 1033.25 899.017 1033.19C897.698 1032.93 897.858 1033.26 898.72 1032.13" fill="none" fill-rule="evenodd" opacity="1" stroke="#000000" stroke-linecap="round" stroke-linejoin="round" stroke-width="15.6448"/>
<path d="M360.827 817.878L664.641 817.878L664.641 880.467L360.827 880.467L360.827 817.878Z" fill="none" fill-rule="evenodd" opacity="1" stroke="#000000" stroke-linecap="round" stroke-linejoin="round" stroke-width="6.86123"/>
<path d="M418.599 524.554L599.582 524.554L599.582 571.48L418.599 571.48L418.599 524.554Z" fill="none" fill-rule="evenodd" opacity="1" stroke="#000000" stroke-linecap="round" stroke-linejoin="round" stroke-width="6.86123"/>
<path d="M416.391 619.212L600.53 619.212L600.53 663.428L416.391 663.428L416.391 619.212Z" fill="none" fill-rule="evenodd" opacity="1" stroke="#000000" stroke-linecap="round" stroke-linejoin="round" stroke-width="6.86123"/>
<path d="M443.865-1.56783L433.364 876.932" fill="none" fill-rule="evenodd" opacity="1" stroke="#000000" stroke-linecap="round" stroke-linejoin="round" stroke-width="6.86123"/>
<path d="M472.944-4.82061C472.944-4.82061 462.959 862.89 462.91 878.068" fill="none" fill-rule="evenodd" opacity="1" stroke="#000000" stroke-linecap="round" stroke-linejoin="round" stroke-width="6.86123"/>
<path d="M500.384-5.52437L494.161 878.068" fill="none" fill-rule="evenodd" opacity="1" stroke="#000000" stroke-linecap="round" stroke-linejoin="round" stroke-width="6.86123"/>
<path d="M537.024-19.2189L537.834-18.4086" fill="none" fill-rule="evenodd" opacity="1" stroke="#000000" stroke-linecap="round" stroke-linejoin="round" stroke-width="6.86123"/>
<path d="M529.115-4.9359C529.115-4.9359 522.438 868.973 522.002 878.637" fill="none" fill-rule="evenodd" opacity="1" stroke="#000000" stroke-linecap="round" stroke-linejoin="round" stroke-width="6.86123"/>
<path d="M638.313-97.8197L641.554-103.492" fill="none" fill-rule="evenodd" opacity="1" stroke="#000000" stroke-linecap="round" stroke-linejoin="round" stroke-width="6.86123"/>
<path d="M557.05 1.47195L547.571 878.637" fill="none" fill-rule="evenodd" opacity="1" stroke="#000000" stroke-linecap="round" stroke-linejoin="round" stroke-width="6.86123"/>
<path d="M579.97-3.35896L579.97 874.561" fill="none" fill-rule="evenodd" opacity="1" stroke="#000000" stroke-linecap="round" stroke-linejoin="round" stroke-width="6.86123"/>
<path d="M608.089 364.996L609.051 436.691" fill="none" fill-rule="evenodd" opacity="1" stroke="#000000" stroke-linecap="round" stroke-linejoin="round" stroke-width="7.03684"/>
<path d="M412.713 0.294309L409.266 377.431" fill="none" fill-rule="evenodd" opacity="1" stroke="#000000" stroke-linecap="round" stroke-linejoin="round" stroke-width="15.9106"/>
<path d="M609.478 423.36L608.195 420.793" fill="none" fill-rule="evenodd" opacity="1" stroke="#000000" stroke-linecap="round" stroke-linejoin="round" stroke-width="6.86123"/>
<path d="M405.62 377.331C405.234 377.138 408.819 377.422 408.515 377.727C407.146 379.096 404.747 380.619 405.042 382.533C405.728 386.997 405.62 390.577 405.62 395.248C405.62 405.418 405.134 416.656 409.087 425.881C410.241 428.572 410.518 432.118 413.711 433.395C420.432 436.083 428.059 435.707 435.096 435.707C438.546 435.707 441.945 437.186 445.5 436.863C450.133 436.441 454.034 434.653 458.793 435.129C469.169 436.166 479.647 436.29 490.004 437.441C493.078 437.782 495.447 438.865 498.674 438.596C509.113 437.727 519.273 438.018 529.884 438.018C533.171 438.018 535.944 437.217 539.132 436.863C541.991 436.545 543.929 437.717 546.646 438.018C552.955 438.719 560.064 435.972 566.297 436.863C568.3 437.149 570.11 438.316 572.077 438.596C575.015 439.016 576.866 437.83 579.59 437.441C584.39 436.755 589.339 436.378 594.04 435.707C601.766 434.603 608.489 434.953 608.489 424.725" fill="none" fill-rule="evenodd" opacity="1" stroke="#000000" stroke-linecap="round" stroke-linejoin="round" stroke-width="6.86123"/>
<path d="M411.459 387.241L607.974 390.538" fill="none" fill-rule="evenodd" opacity="1" stroke="#000000" stroke-linecap="round" stroke-linejoin="round" stroke-width="6.86123"/>
<path d="M413.248 327.729L607.974 332.507" fill="none" fill-rule="evenodd" opacity="1" stroke="#000000" stroke-linecap="round" stroke-linejoin="round" stroke-width="6.86123"/>
<path d="M411.769 271.222C411.769 271.222 594.079 274.734 607.028 274.18" fill="none" fill-rule="evenodd" opacity="1" stroke="#000000" stroke-linecap="round" stroke-linejoin="round" stroke-width="6.86123"/>
<path d="M410.941 215.598L609.986 217.97" fill="none" fill-rule="evenodd" opacity="1" stroke="#000000" stroke-linecap="round" stroke-linejoin="round" stroke-width="6.86123"/>
<path d="M414.096 150.499L608.728 154.806" fill="none" fill-rule="evenodd" opacity="1" stroke="#000000" stroke-linecap="round" stroke-linejoin="round" stroke-width="6.86123"/>
<path d="M413.018 84.0831L610.612 85.2138" fill="none" fill-rule="evenodd" opacity="1" stroke="#000000" stroke-linecap="round" stroke-linejoin="round" stroke-width="6.86123"/>
<path d="M413.018 37.6989C419.775 38.982 613.002 38.4593 613.002 38.4593" fill="none" fill-rule="evenodd" opacity="1" stroke="#000000" stroke-linecap="round" stroke-linejoin="round" stroke-width="6.86123"/>
<path d="M612.992 364.054C619.93 364.871 614.17 318.758 614.857 336.294C615.094 342.33 619.29 359.383 621.198 365.137C622.245 368.293 623.191 368.768 623.972 371.907C624.847 375.425 626.125 377.239 627.58 380.65C628.779 383.462 629.369 386.33 631.5 388.234C634.043 390.506 635.914 393.837 639.029 395.402C641.067 396.426 643.308 397.155 645.368 398.19C650.447 400.742 659.325 404.918 665.18 402.172C669.132 400.318 672.899 396.938 676.67 394.606C689.223 386.842 699.261 376.362 709.954 366.332C722.955 354.136 735.414 341.521 748.388 329.297C751.497 326.367 755.092 324.121 758.293 321.332C766.055 314.571 772.765 306.633 780.878 300.226C785.347 296.697 790.471 294.031 794.746 290.27C797.691 287.681 800.11 284.483 803.067 281.908C805.968 279.38 809.403 277.662 812.577 275.536C819.159 271.125 825.305 266.197 831.992 261.996C837.435 258.577 841.92 254.021 847.841 251.244C855.769 247.526 864.291 242.825 872.803 240.492C876.32 239.528 879.994 239.16 883.501 238.103C887.319 236.951 890.787 234.6 894.596 233.324C897.068 232.496 899.807 232.099 902.124 230.934" fill="none" fill-rule="evenodd" opacity="1" stroke="#000000" stroke-linecap="round" stroke-linejoin="round" stroke-width="15.9196"/>
<path d="M180.349 568.734C180.133 568.906 181.801 571.27 182.113 571.906C182.984 573.683 183.257 575.841 183.95 577.724C185.852 582.888 186.924 588.443 188.836 593.636C189.51 595.465 189.655 597.434 190.425 599.211C191.562 601.84 191.773 604.783 193.427 607.245" fill="none" fill-rule="evenodd" opacity="1" stroke="#000000" stroke-linecap="round" stroke-linejoin="round" stroke-width="14.861"/>
<path d="M375.196 370.094C374.818 370.975 380.757 373.181 381.779 373.62C382.983 374.137 383.937 375.072 385.193 375.435C389.632 376.717 394.187 378.075 398.733 379.035C400.683 379.447 403.448 378.672 405.156 379.405" fill="none" fill-rule="evenodd" opacity="1" stroke="#000000" stroke-linecap="round" stroke-linejoin="round" stroke-width="15.3813"/>
<path d="M897.472 232.934C897.21 232.885 898.45 233.715 899.233 233.26C899.924 232.86 900.47 231.966 901.293 231.729C902.313 231.435 903.288 231.381 904.275 230.87C905.841 230.059 907.102 228.322 908.144 226.943C909.76 224.803 912.552 222.591 914.842 221.263" fill="none" fill-rule="evenodd" opacity="1" stroke="#000000" stroke-linecap="round" stroke-linejoin="round" stroke-width="6.86123"/>
<path d="M850.543 521.191C851.386 526.638 851.156 531.729 851.434 537.222C851.574 539.992 850.664 542.786 850.591 545.543C850.457 550.654 849.986 555.827 849.126 560.889" fill="none" fill-rule="evenodd" opacity="1" stroke="#000000" stroke-linecap="round" stroke-linejoin="round" stroke-width="15.3813"/>
<g opacity="1">
<path d="M218.562 827.75C217.952 828.06 217.298 828.322 216.719 828.688C216.285 828.962 216.122 829.559 215.906 830C215.902 830.01 215.911 830.021 215.906 830.031C215.9 830.043 215.881 830.051 215.875 830.062C215.89 830.222 215.871 830.178 215.875 830.219C215.51 831.255 215.811 832.24 216.469 833.062C216.509 833.663 216.545 834.275 216.594 834.875C216.748 835.55 216.83 836.254 217.219 836.812C217.407 837.084 217.658 836.343 217.875 836.094C218.302 835.603 218.71 835.068 219.156 834.594C219.305 834.435 219.494 834.327 219.656 834.188C219.94 834.097 220.096 833.824 220.344 833.656C219.915 834.121 219.51 834.62 219.031 835.031C218.557 835.439 219.795 834.261 220.688 833.406C220.647 833.449 220.574 833.498 220.469 833.562C220.588 833.473 220.675 833.357 220.781 833.25C220.856 833.168 220.898 833.083 220.969 833C220.994 832.97 221.007 832.936 221.031 832.906C221.785 831.994 222.308 831.036 221.875 829.812C221.72 829.374 221.473 828.995 221.156 828.656C221.124 828.622 221.096 828.603 221.062 828.562C221.057 828.556 221.068 828.536 221.062 828.531C221.077 828.515 221.014 828.515 221 828.5C220.968 828.465 220.947 828.405 220.906 828.375C220.457 828.044 219.137 827.458 218.562 827.75ZM220.781 833.25C220.738 833.298 220.733 833.359 220.688 833.406C221.138 832.975 220.692 833.415 221.531 832.594C221.376 832.918 221.021 833.008 220.781 833.25ZM216.594 834.875C216.499 834.462 216.299 834.096 216.219 833.688C215.981 832.474 216.531 837.5 216.531 837.5C216.531 837.5 217.567 836.328 216.656 836.562C216.358 836.639 216.673 835.964 216.656 835.656C216.642 835.396 216.615 835.134 216.594 834.875ZM216.25 830.375C216.409 830.463 216.396 831.295 216.406 831.5C216.41 831.572 216.405 831.646 216.406 831.719C216.338 831.522 216.119 831.328 216.125 831.156C216.134 830.901 215.967 830.535 216.188 830.406C216.206 830.396 216.232 830.365 216.25 830.375ZM221.719 832C221.722 831.984 221.696 832.017 221.688 832.031C221.6 832.176 221.532 832.36 221.438 832.5C221.506 832.423 221.588 832.358 221.656 832.281C221.722 832.208 221.701 832.097 221.719 832ZM221.375 832.562C221.282 832.667 221.186 832.77 221.094 832.875C221.114 832.863 221.136 832.856 221.156 832.844C221.26 832.781 221.309 832.668 221.375 832.562Z" fill="#000000" stroke="none"/>
</g>
<path d="M218.216 831.886C218.081 831.781 218.161 832.78 218.082 833.104C217.898 833.854 217.347 834.509 217.154 835.252C217.059 835.617 217.212 836.142 217.101 836.459C216.742 837.485 215.934 838.528 215.416 839.491C214.694 840.833 214.351 842.358 213.632 843.694C211.648 847.383 210.289 851.415 208.471 855.203C207.667 856.877 206.575 858.272 205.623 859.832C204.949 860.935 204.642 862.239 204.046 863.388C203.594 864.257 202.935 864.976 202.452 865.827" fill="none" fill-rule="evenodd" opacity="1" stroke="#000000" stroke-linecap="round" stroke-linejoin="round" stroke-width="15.3813"/>
</g>
</svg>
